<svg viewBox="0 0 200 160" xmlns="http://www.w3.org/2000/svg">
  <rect width="200" height="160" fill="#e8edf2"/>
  <rect x="155" y="0" width="45" height="160" fill="#b5d4f4" opacity="0.25"/>
  <path d="M20,130 Q40,110 35,90 Q30,70 50,60 Q70,50 80,30 Q90,15 110,20 Q130,25 140,15 Q155,5 170,20 Q180,30 175,50 Q170,65 160,75 Q150,85 155,100 Q160,115 145,125 Q130,135 110,130 Q90,125 70,135 Q50,145 30,140 Z" fill="#c8dff5" stroke="#7ab3e0" stroke-width="0.6"/>
  <path d="M25,135 Q45,125 65,138 Q85,148 100,142 Q115,136 125,142 Q135,148 130,152 Q110,158 85,155 Q60,152 40,148 Z" fill="#c5dfa0" stroke="#7ab86b" stroke-width="0.5"/>
  <path d="M78,65 Q88,58 100,62 Q112,66 114,76 Q116,86 106,92 Q96,98 84,94 Q74,90 74,80 Z" fill="#f5b8b8" stroke="#e06060" stroke-width="0.6" stroke-dasharray="2,1.5"/>
  <line x1="56" y1="107" x2="86" y2="84" stroke="#5a9fd4" stroke-width="1" stroke-dasharray="3,2" opacity="0.7"/>
  <line x1="140" y1="91" x2="97" y2="83" stroke="#6aaa55" stroke-width="1" stroke-dasharray="3,2" opacity="0.7"/>
  <g class="map-marker" data-id="nottingham" data-city="노팅엄" data-faction="대군세 (점거)" data-terrain="트렌트강 북안 구릉, 방어 유리" data-garrison="추정 2,000~3,000명" data-commander="이바르 (추정)" data-status="적 점거 — 포위 중" data-note="아군 포위망 형성 중. 북문에서 전령 접근 중.">
    <circle class="map-pulse" cx="92" cy="80" r="8" fill="#E24B4A" opacity="0.18"/>
    <circle class="outer" cx="92" cy="80" r="5" fill="#E24B4A" opacity="0.28" stroke="#E24B4A" stroke-width="0.8"/>
    <circle cx="92" cy="80" r="3.5" fill="#E24B4A"/>
  </g>
  <g class="map-marker" data-id="leicester" data-city="레스터" data-faction="머시아" data-terrain="에이번강 유역 평지" data-garrison="~1,500명 (후방 수비)" data-commander="미확인" data-status="아군 거점" data-note="노팅엄 원정군의 주요 보급 기점.">
    <circle class="outer" cx="56" cy="110" r="4" fill="#378ADD" opacity="0.22" stroke="#378ADD" stroke-width="0.6"/>
    <circle cx="56" cy="110" r="2.8" fill="#378ADD"/>
  </g>
  <g class="map-marker" data-id="tamworth" data-city="탬워스" data-faction="머시아" data-terrain="태미강 합류 지점, 머시아 수도" data-garrison="~800명 (왕궁 수비)" data-commander="왕실 직속" data-status="아군 거점 — 수도" data-note="버그레드 왕의 본거지. 왕은 현재 전선에 있음.">
    <circle class="outer" cx="72" cy="90" r="4" fill="#378ADD" opacity="0.22" stroke="#378ADD" stroke-width="0.6"/>
    <circle cx="72" cy="90" r="3" fill="#378ADD" stroke="#185FA5" stroke-width="0.8"/>
    <rect x="70.2" y="88.2" width="3.6" height="3.6" fill="none" stroke="#185FA5" stroke-width="0.8"/>
  </g>
  <g class="map-marker" data-id="lincoln" data-city="링컨" data-faction="머시아 (불안정)" data-terrain="링컨셔 고지" data-garrison="불명" data-commander="불명" data-status="불안정 — 대군세 압박" data-note="대군세 이동 경로상. 수비 정보 없음.">
    <circle class="outer" cx="140" cy="93" r="4" fill="#EF9F27" opacity="0.22" stroke="#EF9F27" stroke-width="0.6"/>
    <circle cx="140" cy="93" r="2.8" fill="#EF9F27"/>
  </g>
  <g class="map-marker" data-id="york" data-city="요크" data-faction="대군세 (점령)" data-terrain="우즈강·포스강 합류점, 로마 요새 기반" data-garrison="대규모 주둔 (규모 불명)" data-commander="하프단 계열 (추정)" data-status="적 점령 — 866년 함락" data-note="대군세 북부 거점. 꼭두각시 왕 세워짐.">
    <circle class="outer" cx="115" cy="42" r="4" fill="#888780" opacity="0.22" stroke="#888780" stroke-width="0.6"/>
    <circle cx="115" cy="42" r="2.8" fill="#888780"/>
  </g>
  <text x="97" y="77"  font-size="6.5" fill="#8b2020" font-family="sans-serif" font-weight="bold">노팅엄</text>
  <text x="42" y="122" font-size="6"   fill="#0d4a87" font-family="sans-serif">레스터</text>
  <text x="58" y="100" font-size="6"   fill="#0d4a87" font-family="sans-serif">탬워스</text>
  <text x="144" y="90" font-size="6"   fill="#6b3a05" font-family="sans-serif">링컨</text>
  <text x="119" y="40" font-size="6"   fill="#555552" font-family="sans-serif">요크</text>
  <rect x="3" y="140" width="95" height="16" rx="3" fill="white" opacity="0.82"/>
  <circle cx="10" cy="148" r="3.5" fill="#E24B4A"/>
  <text x="16" y="151" font-size="5.5" fill="#8b2020" font-family="sans-serif">적 점거</text>
  <circle cx="42" cy="148" r="3" fill="#378ADD"/>
  <text x="48" y="151" font-size="5.5" fill="#0d4a87" font-family="sans-serif">아군</text>
  <circle cx="66" cy="148" r="3" fill="#EF9F27"/>
  <text x="72" y="151" font-size="5.5" fill="#6b3a05" font-family="sans-serif">불안정</text>
  <circle cx="88" cy="148" r="3" fill="#888780"/>
  <text x="93" y="151" font-size="5.5" fill="#555552" font-family="sans-serif">함락</text>
</svg>
