<svg viewBox="0 0 200 160" xmlns="http://www.w3.org/2000/svg">
  <rect width="200" height="160" fill="#d4e8f5"/>
  <path d="M62,2 Q95,0 128,2 Q158,4 178,10 Q192,16 196,26 Q188,34 174,30 Q154,26 136,28 Q112,30 90,28 Q74,30 65,36 Q58,30 58,22 Z" fill="#bdd2ec"/>
  <path d="M0,0 L0,160 L58,160 L64,138 L60,118 L52,100 L44,88 L50,76 L56,66 L55,50 L44,30 L28,14 L10,2 Z" fill="#d0c8a2" stroke="#b0a88c" stroke-width="0.5"/>
  <path d="M44,88 L46,95 L44,102 L42,100 L42,93 Z" fill="#d0c8a2" stroke="#b0a88c" stroke-width="0.4"/>
  <path d="M64,36 L70,22 L84,12 L108,6 L138,4 L168,6 L194,12 L200,18 L200,160 L76,160 L70,140 L66,118 L64,100 L66,86 L70,76 L66,64 L62,50 L62,38 Z" fill="#d0c8a2" stroke="#b0a88c" stroke-width="0.5"/>
  <ellipse cx="60" cy="92" rx="13" ry="7" fill="#d4e8f5"/>
  <line x1="156" y1="52" x2="156" y2="28" stroke="#C5932A" stroke-width="1.2" stroke-dasharray="3,2.5" opacity="0.7"/>
  <line x1="86" y1="95" x2="134" y2="82" stroke="#a8a088" stroke-width="0.8" stroke-dasharray="3,2" opacity="0.5"/>
  <line x1="134" y1="82" x2="157" y2="52" stroke="#a8a088" stroke-width="0.8" stroke-dasharray="3,2" opacity="0.5"/>
  <g class="map-marker" data-id="edirne" data-city="에디르네" data-faction="술레이만 첼레비파" data-terrain="강변 평지 — 마리차·통자·아르다 강 합류부" data-garrison="루멜리아 병력 다수 — 규모 불명" data-commander="술레이만 첼레비" data-status="술레이만 장악" data-note="루멜리아 행정 중심. 비잔틴·제노바 외교 거점.">
    <circle class="outer" cx="22" cy="54" r="4" fill="#3a7abf" opacity="0.22" stroke="#3a7abf" stroke-width="0.6"/>
    <circle cx="22" cy="54" r="2.8" fill="#3a7abf"/>
  </g>
  <g class="map-marker" data-id="gallipoli" data-city="갈리폴리" data-faction="술레이만 첼레비파" data-terrain="다르다넬스 해협 서안 — 반도 요새" data-garrison="해협 수비대 (규모 불명)" data-commander="술레이만 계열" data-status="술레이만 장악" data-note="유럽-아나톨리아 해협 도하 거점. 아나톨리아 개입의 병목.">
    <circle class="outer" cx="44" cy="98" r="4" fill="#3a7abf" opacity="0.22" stroke="#3a7abf" stroke-width="0.6"/>
    <circle cx="44" cy="98" r="2.8" fill="#3a7abf"/>
  </g>
  <g class="map-marker" data-id="constantinople" data-city="콘스탄티노폴리스" data-faction="비잔틴 제국" data-terrain="삼면이 바다 — 테오도시우스 성벽" data-garrison="도시 수비대 — 공략 불가" data-commander="마누엘 2세" data-status="비잔틴 지배 — 외교 중" data-note="어느 왕자도 직접 공략 불가. 외교 승인이 최대 변수.">
    <circle class="map-pulse" cx="63" cy="74" r="7" fill="#7F77DD" opacity="0.15"/>
    <circle class="outer" cx="63" cy="74" r="4" fill="#7F77DD" opacity="0.22" stroke="#7F77DD" stroke-width="0.7"/>
    <circle cx="63" cy="74" r="3" fill="#7F77DD" stroke="#5a52cc" stroke-width="0.8"/>
    <rect x="61.2" y="72.2" width="3.6" height="3.6" fill="none" stroke="#5a52cc" stroke-width="0.8"/>
  </g>
  <g class="map-marker" data-id="iznik" data-city="이즈니크" data-faction="분쟁 지역" data-terrain="이즈니크 호 동안 — 로마 성벽" data-garrison="불명" data-commander="불명" data-status="실효 지배 공백" data-note="부르사와 함께 아나톨리아 서부 패권의 핵심. 이사-술레이만 충돌 가능.">
    <circle class="outer" cx="88" cy="86" r="4" fill="#EF9F27" opacity="0.22" stroke="#EF9F27" stroke-width="0.6"/>
    <circle cx="88" cy="86" r="2.8" fill="#EF9F27"/>
  </g>
  <g class="map-marker" data-id="bursa" data-city="부르사" data-faction="이사 첼레비파" data-terrain="울루다으 산 북록 — 비옥한 평원" data-garrison="이사 병력 — 규모 불명" data-commander="이사 첼레비" data-status="이사 장악 — 불안정" data-note="오스만 최초 수도. 상징성 높으나 기반이 흔들림.">
    <circle class="outer" cx="82" cy="104" r="4" fill="#888780" opacity="0.22" stroke="#888780" stroke-width="0.6"/>
    <circle cx="82" cy="104" r="2.8" fill="#888780"/>
  </g>
  <g class="map-marker" data-id="ankara" data-city="앙카라" data-faction="분쟁 지역" data-terrain="아나톨리아 고원 — 성채 언덕" data-garrison="불명 — 베이릭들이 각자 영역 회복 중" data-commander="불명" data-status="실효 지배 공백" data-note="1402년 앙카라 전투 현장. 아나톨리아 교차로. 심리적 트라우마 지점.">
    <circle class="outer" cx="134" cy="80" r="4" fill="#EF9F27" opacity="0.22" stroke="#EF9F27" stroke-width="0.6"/>
    <circle cx="134" cy="80" r="2.8" fill="#EF9F27"/>
  </g>
  <g class="map-marker" data-id="amasya" data-city="아마스야" data-faction="마흐메트 첼레비파" data-terrain="예실으르막 강 협곡 — 절벽 위 요새 도시" data-garrison="아마스야 수비대 — 방어에 유리" data-commander="마흐메트 첼레비" data-status="마흐메트 거점" data-note="천연 요새. 흑해 교역로 관문. 4형제 중 방어가 가장 용이한 위치.">
    <circle class="map-pulse" cx="157" cy="52" r="7" fill="#C5932A" opacity="0.18"/>
    <circle class="outer" cx="157" cy="52" r="4" fill="#C5932A" opacity="0.22" stroke="#C5932A" stroke-width="0.7"/>
    <circle cx="157" cy="52" r="3" fill="#C5932A"/>
  </g>
  <text x="162" y="50"  font-size="6"   fill="#7a5c10" font-family="sans-serif" font-weight="bold">아마스야</text>
  <text x="139" y="78"  font-size="6"   fill="#6b3a05" font-family="sans-serif">앙카라</text>
  <text x="68"  y="72"  font-size="6"   fill="#45428a" font-family="sans-serif">콘스탄티노폴리스</text>
  <text x="27"  y="52"  font-size="6"   fill="#1a3a6a" font-family="sans-serif">에디르네</text>
  <text x="49"  y="96"  font-size="6"   fill="#1a3a6a" font-family="sans-serif">갈리폴리</text>
  <text x="87"  y="102" font-size="6"   fill="#555552" font-family="sans-serif">부르사</text>
  <rect x="3" y="140" width="126" height="16" rx="3" fill="white" opacity="0.82"/>
  <circle cx="10"  cy="148" r="3.5" fill="#C5932A"/>
  <text x="16"  y="151" font-size="5.5" fill="#7a5c10" font-family="sans-serif">아군</text>
  <circle cx="36"  cy="148" r="3"   fill="#3a7abf"/>
  <text x="42"  y="151" font-size="5.5" fill="#1a3a6a" font-family="sans-serif">경쟁 왕자</text>
  <circle cx="76"  cy="148" r="3"   fill="#EF9F27"/>
  <text x="82"  y="151" font-size="5.5" fill="#6b3a05" font-family="sans-serif">불안정</text>
  <circle cx="105" cy="148" r="3"   fill="#7F77DD"/>
  <text x="111" y="151" font-size="5.5" fill="#45428a" font-family="sans-serif">중립</text>
</svg>
